<?xml version="1.0" encoding="utf-8"?>
<!-- Generator: Adobe Illustrator 16.0.0, SVG Export Plug-In . SVG Version: 6.00 Build 0)  -->
<!DOCTYPE svg PUBLIC "-//W3C//DTD SVG 1.1//EN" "http://www.w3.org/Graphics/SVG/1.1/DTD/svg11.dtd">
<svg version="1.1" id="Layer_1" xmlns="http://www.w3.org/2000/svg" xmlns:xlink="http://www.w3.org/1999/xlink" x="0px" y="0px"
	 width="618.167px" height="230.75px" viewBox="0 0 618.167 230.75" enable-background="new 0 0 618.167 230.75"
	 xml:space="preserve">
<path fill="#231F20" d="M613.583,212.77c0,5.326-3.225,9.646-7.201,9.646H10.783c-3.977,0-7.2-4.317-7.2-9.646V16.392
	c0-5.327,3.224-9.645,7.2-9.645h595.599c3.979,0,7.201,4.318,7.201,9.645V212.77z"/>
<path fill="none" stroke="#241F21" stroke-width="3.7285" stroke-linecap="round" stroke-linejoin="round" stroke-miterlimit="10" stroke-dasharray="0,14.3834" d="
	M23.127,210.296c0,2.394,1.317,4.541,3.41,6.019"/>
<path fill="none" stroke="#241F21" stroke-width="3.7285" stroke-linecap="round" stroke-linejoin="round" stroke-miterlimit="10" stroke-dasharray="0,14.3834" d="
	M33.317,98.452c-2.604,0-4.979,0.772-6.78,2.042"/>
<line fill="none" stroke="#FFFFFF" stroke-width="4" stroke-linecap="round" stroke-linejoin="round" stroke-dasharray="0,12.2805" x1="13.83" y1="27.819" x2="13.83" y2="209.497"/>
<line fill="none" stroke="#FFFFFF" stroke-width="4" stroke-linecap="round" stroke-linejoin="round" stroke-dasharray="0,10.5183" x1="14.917" y1="214.997" x2="604.582" y2="214.997"/>
<line fill="none" stroke="#FFFFFF" stroke-width="4" stroke-linecap="round" stroke-linejoin="round" stroke-dasharray="0,10.5183" x1="14.917" y1="13.997" x2="604.582" y2="13.997"/>
<line fill="none" stroke="#FFFFFF" stroke-width="4" stroke-linecap="round" stroke-linejoin="round" stroke-dasharray="0,12.2805" x1="603.849" y1="201.838" x2="603.849" y2="20.161"/>
<text transform="matrix(1 0 0 1 71.5825 180.0645)" fill="#FFFFFF" font-family="'DKLemonYellowSun'" font-size="158.1944">Groceries</text>
</svg>
